<?xml version="1.0" encoding="utf-8"?>
<svg width="65.02789px" height="56.99994px" viewBox="0 0 65.02789 56.99994" version="1.1" xmlns:xlink="http://www.w3.org/1999/xlink" xmlns="http://www.w3.org/2000/svg">
  <g id="simbolo">
    <path d="M10.7287 20.2375C10.7569 20.1385 10.8304 20.0592 10.9265 20.0196L59.8649 0.0616438C60.1476 -0.054392 60.1786 -0.00627627 59.9582 0.203149L0.148102 56.9753C0.0831146 57.0375 -0.0215149 56.9724 0.00390625 56.8875L10.7287 20.2375Z" id="Path" fill="#FFEF02" fill-rule="evenodd" stroke="none" />
    <path d="M2.84111 56.4914L29.8071 31.3599C29.8862 31.2864 29.9794 31.2411 30.0841 31.2213L64.9545 24.8903C64.9855 24.8846 65.0138 24.9016 65.0251 24.9299C65.0336 24.961 65.0223 24.9922 64.9941 25.0063L2.8976 56.5734C2.875 56.5847 2.84669 56.5791 2.8326 56.5564C2.81856 56.5367 2.82132 56.5084 2.84114 56.4914L2.84111 56.4914Z" id="Path" fill="#C5B82A" fill-rule="evenodd" stroke="none" />
  </g>
</svg>