<?xml version="1.0" encoding="utf-8"?>
<svg width="284px" height="57px" viewBox="0 0 284 57" version="1.1" xmlns:xlink="http://www.w3.org/1999/xlink" xmlns="http://www.w3.org/2000/svg">
  <g id="logo-feadev">
    <g id="simbolo" transform="translate(218.972 0)">
      <path d="M10.7287 20.2375C10.7569 20.1385 10.8304 20.0592 10.9265 20.0196L59.8649 0.0616438C60.1476 -0.054392 60.1786 -0.00627627 59.9582 0.203149L0.148102 56.9753C0.0831146 57.0375 -0.0215149 56.9724 0.00390625 56.8875L10.7287 20.2375Z" id="Path" fill="#FFEF02" fill-rule="evenodd" stroke="none" />
      <path d="M2.84111 56.4914L29.8071 31.3599C29.8862 31.2864 29.9794 31.2411 30.0841 31.2213L64.9545 24.8903C64.9855 24.8846 65.0138 24.9016 65.0251 24.9299C65.0336 24.961 65.0223 24.9922 64.9941 25.0063L2.8976 56.5734C2.875 56.5847 2.84669 56.5791 2.8326 56.5564C2.81856 56.5367 2.82132 56.5084 2.84114 56.4914L2.84111 56.4914Z" id="Path" fill="#C5B82A" fill-rule="evenodd" stroke="none" />
    </g>
    <g id="letras" transform="translate(0 14.581396)">
      <path d="M135.939 35.3378C133.551 38.1923 131.254 40.034 127.268 39.7168C110.179 38.3663 112.541 12.0514 128.992 13.7702C131.408 14.0226 133.377 14.9775 135.069 16.6521C135.141 16.7237 135.26 16.6725 135.264 16.5736C135.376 13.153 135.332 9.71867 135.131 6.2707C134.953 3.23883 132.742 3.16381 130.346 3.18427C130.206 3.18768 130.135 3.11947 130.131 2.97965L130.087 1.9804C130.08 1.83375 130.148 1.74508 130.295 1.71779L139.635 0.00233135C139.737 -0.0147166 139.833 0.0637166 139.829 0.169439C139.805 11.018 139.816 21.853 139.863 32.6743C139.867 33.8986 140.017 35.481 140.427 36.4291C140.901 37.5307 142.761 37.5716 143.829 37.6262C143.945 37.633 144.003 37.6944 144.003 37.8104L144.003 38.987C144.003 39.1097 143.907 39.212 143.784 39.2223L136.383 39.7168C136.233 39.727 136.158 39.6554 136.158 39.5088L136.147 35.4128C136.147 35.3037 136.011 35.2526 135.939 35.3378M123.849 35.8664C127.077 38.929 132.919 37.1385 134.468 33.312C134.861 32.3401 135.083 30.5973 135.137 28.0838C135.206 24.9837 135.673 20.4649 133.284 18.1697C130.657 15.6426 125.47 14.9162 123.054 18.2311C119.997 22.4157 119.894 32.1184 123.849 35.8664L123.849 35.8664Z" id="path48" fill="#FFFFFF" fill-rule="evenodd" stroke="none" />
      <path d="M10.203 22.2858C10.2406 26.0406 10.2679 29.792 10.2884 33.54C10.3122 37.3597 13.7315 37.3494 16.6047 37.4449C16.7446 37.4483 16.8163 37.5234 16.8128 37.6632L16.7924 39.0649C16.789 39.191 16.7241 39.2558 16.5945 39.2558L0.170619 39.2558C0.05801 39.2558 0 39.1979 0 39.0853L0 37.6393C0 37.52 0.05801 37.4586 0.17403 37.4483C4.2962 37.1141 5.14589 36.4866 5.16294 32.2646C5.19024 24.7617 5.20048 17.2589 5.19707 9.75601C5.19366 6.27741 4.61355 4.64386 0.716598 4.63702C0.590342 4.63702 0.525505 4.57563 0.518679 4.44946L0.447017 3.01028C0.43678 2.83635 0.518679 2.74767 0.692709 2.75109L27.6676 2.86022C27.7939 2.86022 27.8622 2.92502 27.869 3.05121L28.3774 11.6829C28.3877 11.8193 28.3228 11.8875 28.1863 11.8875L26.8964 11.8875C26.7907 11.8875 26.6985 11.8125 26.6815 11.7067C26.1218 8.51804 24.8524 5.77608 21.324 5.39754C17.7444 5.01215 14.2092 4.93031 10.7217 5.1588C10.4487 5.17585 10.2372 5.40434 10.2372 5.67718L10.2372 19.9803C10.2372 20.0929 10.2918 20.1475 10.401 20.1475C14.5095 20.202 18.8842 19.6018 19.0582 14.4044C19.0616 14.2782 19.1298 14.2168 19.2561 14.2202L20.6108 14.285C20.7473 14.2918 20.8156 14.3634 20.8156 14.4964L20.8156 27.9606C20.8156 28.0902 20.7507 28.155 20.6211 28.1584L19.3073 28.1789C19.1947 28.1823 19.1298 28.1277 19.1094 28.0152C18.5907 25.188 17.9492 23.1793 14.779 22.5245C13.2128 22.2005 11.742 22.0641 10.3634 22.1186C10.2576 22.1221 10.203 22.18 10.203 22.2858L10.203 22.2858Z" id="Path" fill="#FFFFFF" fill-rule="evenodd" stroke="none" />
      <path d="M41.969 19.0766C41.969 19.155 42.0338 19.2198 42.1123 19.2198C45.8147 19.2437 50.7797 18.947 50.848 13.9542C50.848 13.828 50.9128 13.7632 51.0391 13.7632L52.3392 13.7632C52.4791 13.7632 52.5508 13.8348 52.5508 13.9781L52.5508 26.5078C52.5508 26.6511 52.4791 26.7227 52.3392 26.7227L51.0937 26.7227C50.9606 26.7227 50.8923 26.6579 50.8855 26.5249C50.6193 21.6037 46.0911 21.0035 42.0782 21.1262C41.969 21.1297 41.8802 21.2217 41.8836 21.3342C41.9553 25.0754 41.9928 28.7996 42.0031 32.5135C42.0099 35.3953 43.6888 36.5241 46.4085 36.947C48.9882 37.346 51.5782 37.3017 54.1751 36.814C57.7649 36.1387 59.3175 33.4036 59.983 30.0512C60.0034 29.9455 60.0683 29.8943 60.1775 29.8909L61.6448 29.8705C61.7915 29.867 61.8564 29.9387 61.8461 30.0853C61.6243 33.0864 61.4025 36.0876 61.1807 39.0853C61.1704 39.1979 61.109 39.2558 60.9964 39.2558L31.9058 39.2558C31.7932 39.2558 31.7352 39.1979 31.7352 39.0853L31.7352 37.6325C31.7352 37.479 31.8103 37.4006 31.9638 37.3972C36.4545 37.2607 36.8708 36.0057 36.9084 31.8451C37.0005 21.7469 36.9903 13.7564 36.8777 7.88029C36.8265 5.10082 34.6699 4.81094 32.4655 4.61996C32.3324 4.60633 32.2641 4.5347 32.2607 4.40169L32.2163 3.03413C32.2129 2.90794 32.2744 2.84656 32.4006 2.84656L59.3892 2.82268C59.5291 2.82268 59.6042 2.89431 59.611 3.03413L60.0102 10.8746C60.017 11.0008 59.9181 11.1099 59.7918 11.1133L58.4746 11.144C58.3313 11.1474 58.2529 11.0758 58.2426 10.936C57.8229 6.01823 54.1375 4.93373 49.9096 4.90985C47.4492 4.89622 44.9992 4.89281 42.5525 4.89961C42.2351 4.89961 41.9758 5.15881 41.9758 5.47597L41.969 19.0766Z" id="Path" fill="#FFFFFF" fill-rule="evenodd" stroke="none" />
      <path d="M71.8922 33.3358C70.9913 36.1903 72.2163 37.5886 75.0964 37.4147C75.2226 37.4044 75.3284 37.5068 75.3284 37.633L75.3284 39.0449C75.3284 39.1847 75.2568 39.2563 75.1134 39.2563L63.9584 39.2563C63.8287 39.2563 63.7673 39.1915 63.7707 39.0619L63.8287 37.5341C63.8321 37.4045 63.9004 37.3363 64.0334 37.3328C67.2206 37.2169 68.3706 35.215 69.4694 32.4355C73.3697 22.5964 77.2769 12.7573 81.1909 2.92502C81.2353 2.81588 81.3137 2.76133 81.4298 2.76474L83.1121 2.79203C83.252 2.79544 83.3441 2.86024 83.3953 2.98984C88.9745 16.8976 92.8339 26.4502 94.9667 31.6477C96.2088 34.6659 97.584 37.4932 101.089 37.3909C101.205 37.3875 101.263 37.4454 101.263 37.5614L101.263 39.0449C101.263 39.1847 101.191 39.2564 101.048 39.2564L86.0365 39.2564C85.8932 39.2564 85.8215 39.1847 85.8215 39.0415L85.8215 37.5682C85.8215 37.4488 85.8829 37.3874 86.0024 37.3874C88.8858 37.3806 91.0049 37.0669 89.8788 33.4347C89.1145 30.969 88.2068 28.5544 87.1557 26.191C87.1114 26.0921 87.0363 26.0409 86.9271 26.0409L74.8063 26.0409C74.6596 26.0409 74.5606 26.1057 74.5026 26.2387C73.6461 28.1656 72.776 30.5325 71.8922 33.3358M75.6082 23.4626C75.5809 23.5376 75.6321 23.6161 75.714 23.6161L86.1047 23.6911C86.1866 23.6911 86.2412 23.6127 86.2139 23.5376L81.109 10.0016C81.0749 9.90611 80.9384 9.90611 80.9009 10.0016L75.6082 23.4626Z" id="path54" fill="#FFFFFF" fill-rule="evenodd" stroke="none" />
      <path d="M75.6083 23.4624L80.9009 10.0016C80.9385 9.90609 81.075 9.90609 81.1091 10.0016L86.214 23.5374C86.2413 23.6124 86.1867 23.6909 86.1048 23.6909L75.7141 23.6159C75.6322 23.6159 75.581 23.5374 75.6083 23.4624L75.6083 23.4624Z" id="Path" fill="#000000" fill-rule="evenodd" stroke="none" />
      <path d="M153.056 24.4004C152.527 28.2644 153.336 32.7287 156.257 35.3581C160.123 38.8367 165.088 37.1656 168.326 33.6495C168.412 33.5574 168.5 33.554 168.592 33.6392L169.814 34.7442C169.906 34.8261 169.91 34.9147 169.828 35.0068C166.784 38.4445 163.136 40.0031 158.881 39.6791C142.689 38.4514 143.962 13.2687 161.239 13.7598C167.357 13.9338 170.063 17.8865 170.118 23.5444C170.121 23.9297 169.811 24.2435 169.425 24.2435L153.226 24.2537C153.128 24.2537 153.069 24.3015 153.056 24.4004M164.893 20.5056C164.736 18.2923 163.566 16.6928 161.43 16.2221C156.953 15.2297 154.404 17.7159 153.479 21.8357C153.455 21.9517 153.499 22.0097 153.615 22.0097C156.905 22.0642 160.194 22.0574 163.487 21.9892C164.583 21.9653 164.968 21.597 164.893 20.5057L164.893 20.5056Z" id="path60" fill="#FFFFFF" fill-rule="evenodd" stroke="none" />
      <path d="M187.835 34.0652C189.292 30.6173 190.759 27.1558 192.237 23.6806C192.841 22.2585 195.386 16.471 192.796 16.0106C192.244 15.9117 191.691 15.8367 191.135 15.7821C190.995 15.7685 190.923 15.6901 190.923 15.5502L190.923 14.36C190.923 14.2474 190.981 14.1895 191.094 14.1895L200.181 14.1895C200.321 14.1895 200.393 14.2611 200.393 14.4009L200.393 15.465C200.393 15.598 200.328 15.6867 200.198 15.7242C198.744 16.147 197.68 17.2009 197.001 18.889C195.666 22.2175 192.684 29.127 188.06 39.6139C188.016 39.7162 187.937 39.7674 187.825 39.7674L185.45 39.7674C185.303 39.7674 185.204 39.6992 185.153 39.5662C182.341 32.5613 179.498 25.5734 176.629 18.5991C175.868 16.7473 174.571 15.8231 172.732 15.8231C172.64 15.8231 172.595 15.7787 172.592 15.6901L172.558 14.3634C172.554 14.2474 172.609 14.1895 172.725 14.1895L184.897 14.1895C185.047 14.1895 185.122 14.2645 185.122 14.4112L185.122 15.6423C185.122 15.748 185.04 15.8333 184.934 15.8401C182.276 15.9561 181.3 16.3721 182.307 19.2641C184.023 24.2058 185.791 29.1372 187.617 34.0618C187.654 34.1607 187.794 34.1641 187.835 34.0652L187.835 34.0652Z" id="Path" fill="#FFFFFF" fill-rule="evenodd" stroke="none" />
      <path d="M123.849 35.8659C119.894 32.1179 119.997 22.4153 123.054 18.2308C125.47 14.9159 130.657 15.6423 133.285 18.1694C135.673 20.4646 135.206 24.9833 135.137 28.0834C135.083 30.5968 134.861 32.3395 134.469 33.3115C132.919 37.1379 127.077 38.9284 123.849 35.8659L123.849 35.8659Z" id="Path" fill="#000000" fill-rule="evenodd" stroke="none" />
      <path d="M161.43 16.2221C163.566 16.6928 164.737 18.2922 164.894 20.5056C164.969 21.5969 164.583 21.9652 163.488 21.9891C160.195 22.0573 156.905 22.0641 153.616 22.0096C153.5 22.0096 153.455 21.9516 153.479 21.8356C154.404 17.7159 156.953 15.2297 161.43 16.2221L161.43 16.2221Z" id="Path" fill="#000000" fill-rule="evenodd" stroke="none" />
      <path d="M109.944 36.6263C109.944 38.3315 108.558 39.7162 106.852 39.7162C105.146 39.7162 103.76 38.3315 103.76 36.6263C103.76 34.9212 105.146 33.5365 106.852 33.5365C108.558 33.5365 109.944 34.9212 109.944 36.6263L109.944 36.6263Z" id="Path" fill="#FFFFFF" fill-rule="evenodd" stroke="none" />
    </g>
  </g>
</svg>